# xmcd
#
# Track frame offsets:
#	225
#	19048
#	36038
#	65543
#	85177
#	101980
#	121742
#	136230
#	150928
#	171103
#	189144
#	212761
#
# Disc length: 3094 seconds
#
# Revision: 1
# Processed by: cddbd v1.5.2PL0 Copyright (c) Steve Scherf et al.
# Submitted via: audiograbber 1.83.01
#
DISCID=920c130c
DTITLE=Blue Voodoo - Hot Wire... (My Heart)
DYEAR=2007
DGENRE=Blues
TTITLE0=Doin' Somebody
TTITLE1=Your Blues Are My Blues Now
TTITLE2=Hot Wire (My Heart)
TTITLE3=Gypsy Woman
TTITLE4=Sounds Like "L"
TTITLE5=Blue As Blues Can Get
TTITLE6=Too Much Too Do
TTITLE7=Puddle Of Mud
TTITLE8=Written On My Heart
TTITLE9=Noose Around Your Neck
TTITLE10=Deep Valley
TTITLE11=No Right Or Wrong Way
EXTD=
EXTT0=
EXTT1=
EXTT2=
EXTT3=
EXTT4=
EXTT5=
EXTT6=
EXTT7=
EXTT8=
EXTT9=
EXTT10=
EXTT11=
PLAYORDER=
